<svg width="24" height="24" viewBox="0 0 24 24" fill="none" xmlns="http://www.w3.org/2000/svg">
<path d="M8.17157 19.8284L19.8285 8.17157C20.3737 7.62632 20.6463 7.3537 20.7921 7.0596C21.0694 6.50005 21.0694 5.8431 20.7921 5.28354C20.6463 4.98945 20.3737 4.71682 19.8285 4.17157C19.2832 3.62632 19.0106 3.3537 18.7165 3.20796C18.1569 2.93068 17.5 2.93068 16.9404 3.20796C16.6463 3.3537 16.3737 3.62632 15.8285 4.17157L4.17157 15.8284C3.59351 16.4064 3.30448 16.6955 3.15224 17.063C3 17.4305 3 17.8393 3 18.6568V20.9999H5.34314C6.16065 20.9999 6.5694 20.9999 6.93694 20.8477C7.30448 20.6955 7.59351 20.4064 8.17157 19.8284Z" stroke="black" stroke-width="1.5" stroke-linecap="round" stroke-linejoin="round"/>
<path d="M12 21H18" stroke="black" stroke-width="1.5" stroke-linecap="round" stroke-linejoin="round"/>
<path d="M14.501 5.50195L18.501 9.50195" stroke="black" stroke-width="1.5" stroke-linecap="round" stroke-linejoin="round"/>
</svg>
